<svg width="1295" height="324" viewBox="0 0 1295 324" fill="none" xmlns="http://www.w3.org/2000/svg">
<g clip-path="url(#clip0_365_67)">
<mask id="mask0_365_67" style="mask-type:luminance" maskUnits="userSpaceOnUse" x="0" y="0" width="1295" height="324">
<path d="M1295 0H0V324H1295V0Z" fill="white"/>
</mask>
<g mask="url(#mask0_365_67)">
<path d="M216.457 20.49C207.557 3.59997 188.367 -2.96002 170.317 2.95998C153.777 8.38998 142.607 22.63 143.597 40.08C143.887 45.2 144.817 50.07 146.517 55.19C156.437 85.08 138.717 116.95 106.917 123.92C101.047 125.21 95.6374 127.43 90.9774 130.47C77.5274 137.01 68.8874 149.93 69.7674 165.36C70.0574 170.48 70.9874 175.35 72.6874 180.47C82.6074 210.36 64.8874 242.23 33.0874 249.2C14.2974 253.31 0.257346 267.01 0.0873468 286.79C-0.0726532 305.18 13.4074 320.31 32.1974 322.74C47.4074 324.71 62.4674 318.63 70.2974 305.37C82.3774 284.91 67.5974 271.91 70.9774 246.04C73.9974 222.95 91.2774 208.34 113.527 203.17C119.097 201.88 124.407 200.19 129.397 197.34C138.657 192.05 144.347 184.05 146.617 175.09C153.847 157.36 141.717 144.46 144.817 120.76C147.837 97.67 165.117 83.06 187.367 77.89C192.937 76.6 198.247 74.91 203.237 72.06C222.197 61.22 226.247 39 216.487 20.49H216.457Z" fill="#EDEDED"/>
<path d="M243.691 257.73C256.531 271.86 270.641 269.96 276.421 286.27C280.171 296.84 276.551 307.95 268.381 315.31C258.291 324.41 243.581 324.58 233.421 315.76C222.481 306.27 221.381 292.11 227.831 279.9C238.751 259.24 229.231 234.43 207.971 225.65C204.331 224.15 201.181 222.34 198.191 220.07C188.011 212.33 185.271 199.47 189.941 187.86C195.041 175.2 207.621 167.84 221.171 171C236.021 174.47 246.521 187.22 243.731 202.72C243.001 206.79 241.471 210.49 239.601 214.15C232.131 228.75 232.231 245.11 243.691 257.73Z" fill="#EDEDED"/>
<path d="M190.517 153.52C179.377 154.37 169.257 148.08 165.627 137.73C163.617 131.99 164.007 125.92 166.937 120.67C174.037 107.96 190.387 103.35 202.207 112.22C208.597 117.02 211.727 125.02 210.977 133.2C209.957 144.23 201.947 152.64 190.517 153.51V153.52Z" fill="#8B7BC7"/>
<path d="M358.57 323.21L413.98 112.4H483.25L538.66 323.21H497.7L486.26 276.83H410.97L399.53 323.21H358.57ZM420.31 240.09H476.93L451.33 137.4H445.91L420.31 240.09Z" fill="#8B7BC7"/>
<path d="M584.127 156.37C577.297 156.37 571.527 154.16 566.807 149.75C562.087 145.34 559.727 139.51 559.727 132.28C559.727 125.05 562.087 119.23 566.807 114.81C571.517 110.4 577.297 108.19 584.127 108.19C590.957 108.19 596.977 110.4 601.597 114.81C606.217 119.23 608.528 125.05 608.528 132.28C608.528 139.51 606.217 145.33 601.597 149.75C596.977 154.17 591.157 156.37 584.127 156.37ZM565.157 323.21V173.84H603.107V323.21H565.157Z" fill="#8B7BC7"/>
<path d="M706.555 309.69L777.905 116.04L795.485 115.99L725.585 309.69H706.555Z" fill="#EDEDED" stroke="#EDEDED" stroke-width="21" stroke-miterlimit="10"/>
<path d="M850.059 320.33C839.419 320.33 829.879 318.47 821.449 314.76C813.019 311.05 806.339 305.63 801.419 298.5C796.499 291.38 794.039 282.69 794.039 272.45C794.039 262.21 796.499 253.63 801.419 246.7C806.339 239.77 813.159 234.55 821.899 231.04C830.629 227.53 840.619 225.77 851.859 225.77H892.819V217.34C892.819 210.31 890.609 204.54 886.199 200.02C881.779 195.5 874.749 193.24 865.119 193.24C855.489 193.24 848.659 195.4 844.039 199.71C839.419 204.03 836.409 209.6 835.009 216.42L800.079 204.68C802.489 197.05 806.349 190.07 811.679 183.75C816.999 177.43 824.129 172.31 833.059 168.39C841.989 164.48 852.879 162.52 865.739 162.52C885.409 162.52 900.969 167.44 912.419 177.28C923.869 187.12 929.589 201.37 929.589 220.04V275.75C929.589 281.77 932.399 284.79 938.019 284.79H950.059V316.11H924.759C917.329 316.11 911.209 314.3 906.389 310.69C901.569 307.08 899.159 302.26 899.159 296.23V295.93H893.439C892.629 298.34 890.829 301.5 888.019 305.42C885.209 309.33 880.789 312.8 874.769 315.81C868.749 318.82 860.509 320.33 850.079 320.33H850.059ZM856.679 289.61C867.319 289.61 875.999 286.65 882.729 280.73C889.449 274.81 892.819 266.93 892.819 257.09V254.08H854.569C847.539 254.08 842.019 255.59 838.009 258.6C833.989 261.61 831.989 265.83 831.989 271.25C831.989 276.67 834.099 281.09 838.309 284.5C842.529 287.92 848.649 289.62 856.679 289.62V289.61Z" fill="#EDEDED"/>
<path d="M1067.49 320.33C1054.04 320.33 1043.7 318.02 1036.47 313.4C1029.24 308.78 1023.92 303.66 1020.51 298.04H1015.09V316.11H977.75V105.3H1015.7V183.9H1021.12C1023.33 180.29 1026.29 176.87 1030 173.66C1033.71 170.45 1038.63 167.79 1044.76 165.68C1050.88 163.57 1058.46 162.52 1067.5 162.52C1079.55 162.52 1090.69 165.48 1100.93 171.4C1111.17 177.32 1119.4 186.01 1125.63 197.45C1131.85 208.89 1134.97 222.75 1134.97 239.01V243.83C1134.97 260.09 1131.85 273.95 1125.63 285.39C1119.4 296.83 1111.17 305.52 1100.93 311.44C1090.69 317.36 1079.55 320.32 1067.5 320.32L1067.49 320.33ZM1056.05 287.21C1067.69 287.21 1077.43 283.44 1085.26 275.92C1093.09 268.39 1097 257.4 1097 242.94V239.93C1097 225.48 1093.13 214.48 1085.41 206.95C1077.68 199.42 1067.89 195.66 1056.05 195.66C1044.21 195.66 1034.67 199.42 1026.84 206.95C1019.01 214.48 1015.1 225.47 1015.1 239.93V242.94C1015.1 257.4 1019.01 268.39 1026.84 275.92C1034.67 283.45 1044.41 287.21 1056.05 287.21Z" fill="#EDEDED"/>
<path d="M1231.92 320.33C1212.44 320.33 1196.48 316.11 1184.04 307.68C1171.59 299.25 1164.06 287.2 1161.45 271.54L1196.38 262.51C1197.78 269.54 1200.15 275.06 1203.46 279.07C1206.77 283.09 1210.89 285.95 1215.81 287.65C1220.73 289.36 1226.1 290.21 1231.92 290.21C1240.75 290.21 1247.28 288.66 1251.49 285.54C1255.71 282.43 1257.81 278.57 1257.81 273.94C1257.81 269.31 1255.8 265.76 1251.79 263.25C1247.77 260.74 1241.35 258.69 1232.52 257.08L1224.09 255.57C1213.65 253.57 1204.11 250.8 1195.48 247.29C1186.85 243.78 1179.92 238.91 1174.7 232.68C1169.48 226.46 1166.87 218.43 1166.87 208.59C1166.87 193.74 1172.29 182.34 1183.13 174.41C1193.97 166.48 1208.22 162.52 1225.89 162.52C1242.55 162.52 1256.41 166.24 1267.45 173.66C1278.49 181.09 1285.72 190.83 1289.13 202.87L1253.9 213.71C1252.29 206.08 1249.03 200.66 1244.11 197.45C1239.19 194.24 1233.12 192.63 1225.89 192.63C1218.66 192.63 1213.14 193.89 1209.33 196.4C1205.51 198.91 1203.61 202.38 1203.61 206.79C1203.61 211.61 1205.61 215.18 1209.63 217.48C1213.64 219.79 1219.06 221.55 1225.89 222.75L1234.32 224.26C1245.56 226.27 1255.75 228.93 1264.89 232.24C1274.02 235.55 1281.25 240.27 1286.57 246.39C1291.89 252.52 1294.55 260.8 1294.55 271.24C1294.55 286.9 1288.88 299 1277.54 307.53C1266.19 316.07 1250.99 320.33 1231.91 320.33H1231.92Z" fill="#EDEDED"/>
</g>
</g>
<defs>
<clipPath id="clip0_365_67">
<rect width="1295" height="324" fill="white"/>
</clipPath>
</defs>
</svg>
