<svg width="278" height="324" viewBox="0 0 278 324" fill="none" xmlns="http://www.w3.org/2000/svg">
<g clip-path="url(#clip0_382_2)">
<path d="M216.457 20.49C207.557 3.59997 188.367 -2.96002 170.317 2.95998C153.777 8.38998 142.607 22.63 143.597 40.08C143.887 45.2 144.817 50.07 146.517 55.19C156.437 85.08 138.717 116.95 106.917 123.92C101.047 125.21 95.6374 127.43 90.9774 130.47C77.5274 137.01 68.8874 149.93 69.7674 165.36C70.0574 170.48 70.9874 175.35 72.6874 180.47C82.6074 210.36 64.8874 242.23 33.0874 249.2C14.2974 253.31 0.257346 267.01 0.0873468 286.79C-0.0726532 305.18 13.4074 320.31 32.1974 322.74C47.4074 324.71 62.4674 318.63 70.2974 305.37C82.3774 284.91 67.5974 271.91 70.9774 246.04C73.9974 222.95 91.2774 208.34 113.527 203.17C119.097 201.88 124.407 200.19 129.397 197.34C138.657 192.05 144.347 184.05 146.617 175.09C153.847 157.36 141.717 144.46 144.817 120.76C147.837 97.67 165.117 83.06 187.367 77.89C192.937 76.6 198.247 74.91 203.237 72.06C222.197 61.22 226.247 39 216.487 20.49H216.457Z" fill="#303030"/>
<path d="M243.691 257.73C256.531 271.86 270.641 269.96 276.421 286.27C280.171 296.84 276.551 307.95 268.381 315.31C258.291 324.41 243.581 324.58 233.421 315.76C222.481 306.27 221.381 292.11 227.831 279.9C238.751 259.24 229.231 234.43 207.971 225.65C204.331 224.15 201.181 222.34 198.191 220.07C188.011 212.33 185.271 199.47 189.941 187.86C195.041 175.2 207.621 167.84 221.171 171C236.021 174.47 246.521 187.22 243.731 202.72C243.001 206.79 241.471 210.49 239.601 214.15C232.131 228.75 232.231 245.11 243.691 257.73Z" fill="#303030"/>
<path d="M190.517 153.52C179.377 154.37 169.257 148.08 165.627 137.73C163.617 131.99 164.007 125.92 166.937 120.67C174.037 107.96 190.387 103.35 202.207 112.22C208.597 117.02 211.727 125.02 210.977 133.2C209.957 144.23 201.947 152.64 190.517 153.51V153.52Z" fill="#8B7BC7"/>
</g>
<defs>
<clipPath id="clip0_382_2">
<rect width="278" height="324" fill="white"/>
</clipPath>
</defs>
</svg>
