<svg width="500" height="500" viewBox="0 0 500 500" fill="none" xmlns="http://www.w3.org/2000/svg">
<g clip-path="url(#clip0_335_2)">
<rect width="500" height="500" rx="48" fill="white"/>
<path d="M0 0H500V500H0V0Z" fill="#313131"/>
<path d="M276.782 69.0884C286.857 67.8651 297.867 70.8229 305.977 76.8659C315.049 83.6261 320.907 94.9659 322.489 105.953C325.704 123.367 314.654 143.262 297.702 149.088C278.882 155.554 262.127 157.382 248.996 175.154C238.646 189.162 236.865 205.564 239.927 222.534C240.926 228.073 242.377 233.734 243.206 239.322C244.684 247.572 242.88 253.308 240.555 260.728C233.515 283.203 214.759 286.84 195.02 292.59C185.661 295.318 174.163 304.178 168.174 312.123C153.751 331.255 157.877 353.633 162.47 375.145C164.556 385.245 161.749 396.493 155.315 404.783C147.312 415.095 137.76 418.76 125.056 420.44C115.821 421.128 104.542 417.978 97.0899 412.445C88.6812 406.308 83.1082 397.035 81.6357 386.73C78.8882 367.03 89.9442 349.608 108.191 342.585C116.516 339.38 122.456 339.025 130.805 334.995C139.09 331.013 146.302 325.105 151.838 317.768C162.043 304.153 165.815 286.675 161.881 270.253C160.388 264.02 158.618 259.575 157.67 253.143C154.909 234.394 163.445 219.011 180.068 210.285C183.825 208.312 186.114 206.854 190.461 205.239C194.391 203.778 197.457 203.256 201.398 202.15C205.083 201.102 208.663 199.712 212.089 197.997C220.099 194.012 227.066 188.209 232.433 181.051C242.352 167.8 246.105 150.928 242.738 134.721C241.776 130.206 240.117 125.609 239.034 120.963C232.831 94.3606 249.234 72.5834 276.782 69.0884Z" fill="#A58BFA"/>
<path d="M318.349 255.56C326.639 255.29 332.064 255.947 339.554 260.46C351.706 267.782 356.684 280.765 352.874 294.382C351.736 298.45 349.541 302.485 347.814 306.355C343.779 315.385 342.291 325.075 344.809 334.74C347.549 345.515 355.294 353.992 364.506 359.825C369.739 363.127 375.291 365.61 380.254 369.342C391.904 378.107 394.161 394.892 386.284 406.93C381.456 414.307 375.341 418.7 366.724 420.687C359.306 422.137 352.391 420.84 346.059 416.862C331.441 407.677 328.396 389.84 336.239 375.08C337.769 372.202 339.214 368.395 340.004 365.217C341.626 358.852 341.666 352.185 340.119 345.8C337.506 334.237 330.144 324.312 319.836 318.46C315.571 316.057 311.221 314.477 306.884 311.82C291.536 302.417 288.376 283.797 297.906 268.952C302.861 261.232 309.429 257.502 318.349 255.56Z" fill="#A58BFA"/>
<path d="M290.475 184.463C304.423 182.622 317.195 192.506 318.91 206.469C320.625 220.431 310.625 233.113 296.648 234.702C282.848 236.271 270.363 226.426 268.668 212.641C266.975 198.856 276.708 186.281 290.475 184.463Z" fill="#A58BFA"/>
</g>
<defs>
<clipPath id="clip0_335_2">
<rect width="500" height="500" rx="48" fill="white"/>
</clipPath>
</defs>
</svg>
